<svg id="Layer_1" data-name="Layer 1" xmlns="http://www.w3.org/2000/svg" xmlns:xlink="http://www.w3.org/1999/xlink" viewBox="0 0 449.27 449.27"><defs><style>.cls-1{fill:#3c3c57;}.cls-2{fill:url(#linear-gradient);}.cls-3{fill:#fff;}</style><linearGradient id="linear-gradient" x1="132.33" y1="330.09" x2="305.66" y2="330.09" gradientUnits="userSpaceOnUse"><stop offset="0" stop-color="#32c3bb"/><stop offset="0.96" stop-color="#05bac5"/></linearGradient></defs><circle class="cls-1" cx="224.64" cy="224.64" r="224.64"/><path class="cls-2" d="M261.81,295.22c-6.73,18.45-23.32,29.6-43.26,29.6-20.65,0-36.05-11.6-42.38-29.6H132.33A87.3,87.3,0,0,0,218.24,365c44.57,0,78.89-29.95,87.42-69.73Z"/><path class="cls-3" d="M318.94,100.81H219v0c-.37,0-.74,0-1.11,0-46.18,0-87.59,37.91-87.59,89.18,0,49.68,38.86,88.86,87.91,88.86,51.59,0,89.49-40.13,89.49-89.18a88.13,88.13,0,0,0-14.51-48.73h25.72ZM218.55,238.71c-27.39,0-45.54-20.38-45.54-49.05,0-28,19.11-48.73,45.54-48.73,27.71,0,46.5,20.39,46.5,49C265.05,219.6,244.67,238.71,218.55,238.71Z"/></svg>